<svg xmlns="http://www.w3.org/2000/svg" width="532.615" height="400.615" viewBox="0 0 532.615 400.615">
  <g id="cloud" transform="translate(-993.307 -247.154)">
    <path id="Union_1" data-name="Union 1" d="M248.121,279.7a142.726,142.726,0,0,1-154.5-54.25A84.918,84.918,0,0,1,84,226,84.015,84.015,0,0,1,54.387,63.368a84.138,84.138,0,0,1,87.787-46.492A142.6,142.6,0,0,1,328.847,64.607a84.1,84.1,0,0,1,92.293,65.729A119.515,119.515,0,1,1,248.121,279.7Z" transform="translate(1019 273)" fill="#f6e5ff"/>
    <path id="Path_3" data-name="Path 3" d="M1023.077,433.846l20.769,21.538,48.461,31.538,11.539-4.615,32.308,25.385,34.615,21.538,54.615-10,33.077,10,25.385-10s9.231-4.039,33.077-6.923,32.5-8.846,62.308-4.615,32.115,10.769,56.923,21.538a371.245,371.245,0,0,1,42.308,21.538l-23.846,38.462-46.154,23.846-46.923,7.692-39.231-19.231-24.615-12.308-26.154-38.462h-56.923l-43.846-10-34.615-21.538-20.769-23.077h-18.462l-25.385-9.231-27.692-20.769Z" fill="#d5c8dc" opacity="0.39"/>
    <g id="Group_2" data-name="Group 2">
      <path id="Path_1" data-name="Path 1" d="M1348.521,339.645l9.468,9.467,14.2,31.953,52.663,9.467,13.609,11.243-32.544-7.692H1372.19l-46.746,15.976-31.953,27.219-16.568,27.811-7.692,39.053V550.3h-8.284L1249.7,511.243l11.243-57.988,18.935-30.769,45.562-35.5,32.544-8.284Z" fill="#896d98" opacity="0.35"/>
      <path id="Path_2" data-name="Path 2" d="M1111.243,495.858l-16.568-13.609-15.385-52.663,5.325-50.3,19.527-43.787-30.769,2.367,11.243-7.692,26.627-5.325,35.5-30.178,13.018-2.959v10.651l-34.911,22.485-20.71,44.379-9.467,43.787,2.959,36.095,13.609,33.136Z" fill="#896d98" opacity="0.35"/>
    </g>
    <path id="Path_4" data-name="Path 4" d="M1433.077,416.923,1466.153,450l20.769,50.769s-4.615,38.462-6.923,38.462-36.923-77.692-36.923-77.692l-39.231-55.385Z" fill="#fff"/>
    <path id="Path_5" data-name="Path 5" d="M1380,345.385s15.385,6.923,17.692,8.462,21.538,23.077,21.538,23.077l-21.538-11.538Z" fill="#fff"/>
    <path id="Path_6" data-name="Path 6" d="M1242.307,286.154s55.385,23.846,56.923,26.154,30,51.538,30,51.538l-30-29.231-83.077-48.462Z" fill="#fff"/>
    <path id="Path_7" data-name="Path 7" d="M1077.692,345.385l-26.154,8.462-19.231,30Z" fill="#fff"/>
  </g>
</svg>
